<svg width="128" height="128" viewBox="0 0 128 128" fill="none" xmlns="http://www.w3.org/2000/svg">
<path d="M6.68244 92.4728C0.0223994 79.0657 -1.72704 63.7481 1.73844 49.1845C5.20392 34.621 13.665 21.733 25.6499 12.7626C37.6348 3.79216 52.3851 -0.693128 67.335 0.0869564C82.2848 0.867041 96.4882 6.86313 107.474 17.0322C118.461 27.2013 125.534 40.8998 127.465 55.745C129.396 70.5901 126.062 85.6424 118.043 98.2836C110.024 110.925 97.8268 120.355 83.5739 124.933C69.3211 129.512 53.9142 128.949 40.0333 123.343L43.6283 114.442C55.4271 119.207 68.5229 119.685 80.6378 115.793C92.7528 111.902 103.12 103.886 109.936 93.141C116.753 82.3961 119.587 69.6016 117.946 56.9832C116.304 44.3648 110.292 32.7211 100.953 24.0774C91.615 15.4337 79.5421 10.337 66.8347 9.67391C54.1274 9.01084 41.5896 12.8233 31.4024 20.4482C21.2153 28.0731 14.0233 39.0278 11.0777 51.4068C8.13201 63.7859 9.61904 76.8058 15.2801 88.2019L6.68244 92.4728Z" fill="#FEC8C9"/>
</svg>
