<svg width="128" height="128" viewBox="0 0 128 128" fill="none" xmlns="http://www.w3.org/2000/svg">
<path d="M121.318 35.5272C127.978 48.9343 129.727 64.2519 126.262 78.8155C122.796 93.379 114.335 106.267 102.35 115.237C90.3652 124.208 75.6149 128.693 60.665 127.913C45.7152 127.133 31.5118 121.137 20.5256 110.968C9.53937 100.799 2.46555 87.1002 0.534621 72.255C-1.39631 57.4099 1.93784 42.3576 9.95708 29.7164C17.9763 17.0753 30.1732 7.64528 44.4261 3.06675C58.6789 -1.51178 74.0858 -0.949082 87.9667 4.65695L84.3717 13.5584C72.5729 8.79328 59.4771 8.31499 47.3621 12.2067C35.2472 16.0985 24.8799 24.114 18.0635 34.859C11.2472 45.6039 8.41314 58.3984 10.0544 71.0168C11.6957 83.6352 17.7085 95.2789 27.0467 103.923C36.385 112.566 48.4579 117.663 61.1653 118.326C73.8726 118.989 86.4104 115.177 96.5976 107.552C106.785 99.9269 113.977 88.9722 116.922 76.5932C119.868 64.2141 118.381 51.1942 112.72 39.7982L121.318 35.5272Z" fill="#FEC8C9"/>
</svg>
