<svg width="1015" height="589" viewBox="0 0 1015 589" fill="none" xmlns="http://www.w3.org/2000/svg">
<g clip-path="url(#clip0_392_7800)">
<path d="M933.13 26.63L514.89 337.18H499.15L80.92 26.63C59.05 10.02 36.89 0 0 0V566.66C0 578.6 9.68 588.26 21.61 588.26H992.42C1004.36 588.26 1014.03 578.6 1014.03 566.66V0C977.12 0 954.98 10.02 933.13 26.63Z" fill="#AC998B"/>
<path d="M992.42 588.26C994.42 588.26 996.34 587.97 998.17 587.47L552.3 303.04C525.85 280.34 482.98 280.34 456.53 303.04L12.35 586.15C15.16 587.49 18.3 588.26 21.62 588.26H992.43H992.42Z" fill="#D2BDAA"/>
</g>
<defs>
<clipPath id="clip0_392_7800">
<rect width="1014.03" height="588.26" fill="white"/>
</clipPath>
</defs>
</svg>
